<svg width="51" height="114" viewBox="0 0 51 114" fill="none" xmlns="http://www.w3.org/2000/svg">
<path d="M22.7864 23.832C22.7864 25.3841 22.4301 26.8091 21.7177 28.1068C21.0052 29.3791 19.911 30.4096 18.4352 31.1984C16.9594 31.9872 15.1273 32.3816 12.939 32.3816H8.89317V42H2.36642V15.206H12.939C15.0764 15.206 16.883 15.5749 18.3589 16.3129C19.8347 17.0508 20.9416 18.0686 21.6795 19.3663C22.4174 20.664 22.7864 22.1526 22.7864 23.832ZM12.4428 27.1908C13.6896 27.1908 14.6184 26.8982 15.2291 26.3129C15.8398 25.7277 16.1451 24.9007 16.1451 23.832C16.1451 22.7633 15.8398 21.9363 15.2291 21.3511C14.6184 20.7658 13.6896 20.4732 12.4428 20.4732H8.89317V27.1908H12.4428ZM46.6042 15.206V20.435H39.5049V42H32.9781V20.435H25.8789V15.206H46.6042ZM8.89317 77.435V82.8549H17.6337V87.8931H8.89317V93.771H18.7787V99H2.36642V72.206H18.7787V77.435H8.89317ZM48.1306 99H41.6038L30.6878 82.4732V99H24.161V72.206H30.6878L41.6038 88.8091V72.206H48.1306V99Z" fill="white"/>
<rect y="54" width="51" height="6" rx="3" fill="white"/>
</svg>
