<svg width="150" height="123" viewBox="0 0 150 123" fill="none" xmlns="http://www.w3.org/2000/svg">
<path d="M43.2177 0L46.4619 8.03571C48.4845 13.0325 51.2331 25.5214 50.5993 31.4123C42.7452 36.3214 37.9279 41.1136 34.2111 45.111C29.6704 41.3883 20.6869 35.0649 5.76236 35.0649H0V40.9091C0 52.0948 3.98179 61.1825 5.40509 64.2857C3.9645 67.3656 0 76.1318 0 87.6623V93.5065H5.76236C20.5716 93.5065 29.6646 87.1597 34.2169 83.4604C41.0338 90.5844 50.7549 98.0942 63.0287 103.734C62.487 107.363 62.0606 112.43 63.5646 118.344L64.6479 122.727H69.1483C76.2591 122.727 82.3845 119.145 87.3343 115.971C91.3853 113.365 93.3445 111.542 94.3587 110.671C117.276 109.853 131.906 97.3169 139.737 84.9214C147.839 72.1169 149.821 59.3532 149.821 59.3532L150 57.8922L149.464 56.4312C149.464 56.4312 136.268 19.6773 100.484 17.8948C96.6809 13.2195 91.3622 9.33896 83.9173 6.20649C75.1124 2.51299 64.0371 0 51.8612 0H43.2177ZM59.9631 12.4188C67.2352 13.237 74.0348 14.7273 79.4111 16.9831C86.7754 20.0688 91.9039 24.4929 93.0967 26.4799L94.7217 29.2208H97.9601C126.749 29.2208 137.104 56.8636 137.939 59.1721C137.536 61.3169 135.865 69.4695 130.016 78.7149C123.326 89.2812 112.499 99.3506 92.1978 99.3506H90.0369L88.4177 100.812C88.4177 100.812 85.3751 103.442 81.2147 106.106C79.025 107.503 77.1638 107.755 74.9107 108.666C75.1412 105.995 74.9107 102.092 74.9107 102.092L76.1726 96.9779L71.4878 95.3299C57.2202 89.8071 45.0847 79.3987 38.8959 72.1403L34.9314 67.389L30.6097 71.7721C30.6097 71.7721 22.9342 77.2305 12.9653 79.8078C14.452 72.9584 16.7454 66.8455 16.7454 66.8455L18.0074 64.2857L16.7454 61.726C16.7454 61.726 14.2503 55.0169 12.7867 47.8461C23.4067 50.2247 30.6097 56.7994 30.6097 56.7994L34.9314 61.1825L38.8959 56.4312C44.0532 50.5227 57.9405 35.7955 78.3335 33.0545L76.7085 21.5474C71.194 22.2838 66.3824 23.9026 61.7667 25.7552C61.4729 20.8461 61.2251 16.6208 59.9631 12.4188ZM112.366 52.5974C110.074 52.5974 107.875 53.521 106.254 55.165C104.633 56.809 103.722 59.0387 103.722 61.3636C103.722 63.6886 104.633 65.9183 106.254 67.5623C107.875 69.2063 110.074 70.1299 112.366 70.1299C114.658 70.1299 116.857 69.2063 118.478 67.5623C120.099 65.9183 121.01 63.6886 121.01 61.3636C121.01 59.0387 120.099 56.809 118.478 55.165C116.857 53.521 114.658 52.5974 112.366 52.5974Z" fill="#C3321E"/>
</svg>
