<svg width="150" height="150" viewBox="0 0 150 150" fill="none" xmlns="http://www.w3.org/2000/svg">
<path d="M134.773 0L97.345 19.375L62.6575 4.375L15.2275 7.5L0 140.625L49.0375 136.458L103.465 150L150 133.125L134.773 0ZM130.63 7.7725L144.585 129.77L104.425 144.333L104.202 139.648L139.63 126.272L127.525 14.79L98.9125 28.36L98.7175 24.295L99.645 23.8175L130.63 7.7725ZM101.538 83.6225C102.093 82.4425 102.638 80.785 102.897 78.46C102.897 78.46 105.653 78.595 109.043 85.9825C109.043 85.9825 110.523 85.835 109.785 81.0125C109.785 81.0125 115.077 78.88 112.223 69.5025C112.223 69.5025 116.662 75.6175 115.188 67.6675C115.188 67.6675 120.057 61.6975 114.24 57.7275C114.24 57.7275 114.44 53.325 117.938 53.89C117.938 53.89 121.432 44.8 119.747 55.5925C119.747 55.5925 119.847 57.7275 122.07 60.135C122.07 60.135 123.028 56.5875 121.33 52.7625C121.33 52.7625 124.828 46.2175 124.508 40.545C124.508 40.545 113.178 44.7475 100.57 43.4925C100.57 43.4925 101.185 41.1475 99.4625 39.83L99.11 32.4175L99.41 32.275L124.37 20.44L135.59 123.792L104.017 135.715L101.538 83.6225ZM96.9425 39.6375C95.64 41.495 92.025 47.2075 94.2225 50.6275C94.2225 50.6275 93.1575 58.035 91.6725 47.23C91.6725 47.23 89.245 53.6075 85.96 52.185C85.96 52.185 85.0575 58.64 82.99 54.315C82.99 54.315 84.6825 55.0275 85.055 53.04C85.055 53.04 80.2825 47.9275 77.43 55.6575C77.43 55.6575 75.1 56.585 76.0025 60.21C76.0025 60.21 77.6375 57.22 78.4875 61.7725C78.4875 61.7725 79.39 61.0625 79.7675 55.235C79.7675 55.235 82.0325 54.105 80.2825 58.71C80.2825 58.71 85.4725 58.7925 77.43 63.395C77.43 63.395 76.985 63.32 76.635 61.555C76.635 61.555 75.4175 65.805 72.9225 67.3125C72.9225 67.3125 73.5075 69.01 71.6575 69.79C71.6575 69.79 70.655 72.42 73.04 72.42C73.04 72.42 75.1025 66.1 79.0225 71.0725C79.0225 71.0725 79.77 70.79 78.6025 68.3025C78.6025 68.3025 80.6625 69.0925 81.46 72.35C81.46 72.35 82.7325 72.13 82.935 69.2975C82.935 69.2975 84.5325 65.6775 87.13 69.94C87.13 69.94 83.6825 68.9425 82.7875 72.42C82.7875 72.42 84.4175 71.7075 85.4325 72.705C85.4325 72.705 85.535 74.3275 84.495 74.955C84.945 75.8 85.4325 76.61 86.1125 77.295C86.302 77.4714 86.4247 77.7079 86.4597 77.9644C86.4948 78.2209 86.4401 78.4817 86.305 78.7025C88.14 81.8425 91.53 86.0225 93.9025 79.35C93.9025 79.35 90.7275 81.1525 89.665 76.18C89.665 76.18 96.0725 76.995 99.0275 83.4225L101.515 135.793L51.685 121.818L52.4325 114.425C53.4675 117.077 54.68 118.155 54.68 118.155C53.2725 106.618 61.5975 99.225 61.5975 99.225C63.215 91.305 59.1025 87.75 55.29 86.15L57.2475 66.78C58.0325 65.8025 58.495 65.15 58.495 65.15C58.2125 64.1775 57.9375 63.325 57.675 62.545L59.5725 43.75C61.1675 45.6925 61.35 47.4575 60.9025 49.0625C58.85 56.445 61.49 58.7075 61.49 58.7075C63.0925 52.4725 68.5925 51.4775 68.5925 51.4775C68.2775 45.6475 71.6625 39.02 71.6625 39.02C67.98 32.6925 62.7125 36.96 59.9525 39.98L60.1675 37.8575C60.7325 37.13 61.3225 36.3375 61.96 35.4325C61.96 35.4325 61.4325 35.07 60.475 34.805L62.155 18.1675L96.365 32.3475L96.605 32.4475L96.9425 39.6375ZM57.9875 34.55C56.2825 34.63 54.1 35.2175 51.5325 36.9925C51.5325 36.9925 50.3125 48.1975 57.3175 41.175L56.535 48.9275C55.62 45.8675 53.45 44.8025 53.45 44.8025C51.325 46.0875 51.5375 47.7875 51.5375 47.7875C53.465 48.0775 54.6425 50.3975 55.335 52.5725C54.945 53.17 54.2775 53.8525 53.125 53.965C53.125 53.965 54.4675 55.9825 55.7675 56.5475L55.625 57.9375C52.6 53.405 51.29 62.5125 51.29 62.5125C43.8125 54.18 53.275 50.01 53.275 50.01C47.4825 47.5625 44.8 40.5475 44.8 40.5475C44.5175 44.905 42.82 44.7125 42.82 44.7125C29.545 36.9525 27.155 49.45 27.155 49.45C29.2625 56.07 24.745 56.8275 24.745 56.8275C29.12 57.5825 31.3775 51.525 31.3775 51.525C40.4225 56.07 35.62 72.3525 35.62 72.3525C39.1475 74.4275 40.1375 81.25 40.1375 81.25C42.595 81.995 45.1125 83.5 46.8775 84.6925C47.22 84.385 47.5725 84.0925 47.9425 83.82C43.8175 80.905 43.81 76.185 43.81 76.185C47.5525 76.185 51.5325 72.96 54.405 69.995L52.855 85.3525C52.1573 85.1771 51.4504 85.0411 50.7375 84.945C50.071 85.2646 49.445 85.6624 48.8725 86.13L49.1775 86.3675C45.0175 94.36 50.6425 97.565 51.575 98.0275L49.1875 121.652L16.0975 124.24L27.135 19.705L59.68 17.79L57.9875 34.55ZM51.3025 125.607L101.7 139.742L101.925 144.465L50.685 131.715L51.3025 125.607ZM96.215 24.335L96.405 28.31L62.55 14.2775L62.985 9.9625L95.36 23.965L96.215 24.335ZM19.7225 12.215L60.515 9.5275L60.0625 14.0125L23.74 16.1475L11.8975 128.333L48.81 125.44L48.195 131.51L5.6625 135.128L19.7225 12.215Z" fill="#C3321E"/>
<path d="M75.1562 86.5489C75.1562 86.5489 80.4612 87.5414 78.3387 97.7639C78.3387 97.7639 79.1862 105.731 83.8387 105.004C83.8387 105.004 85.1088 93.5063 91.0413 84.6988C91.0413 84.6988 88.6362 87.0939 85.9087 79.1514C85.4962 79.4514 84.9362 79.5213 84.4687 79.0563C83.2937 77.8838 82.5838 76.4063 81.8188 74.9213C81.7102 74.7077 81.6659 74.4672 81.6912 74.2288C77.8312 72.7888 70.0137 71.3439 68.9062 82.7114C68.9088 82.7114 70.3863 90.5364 75.1562 86.5489Z" fill="#C3321E"/>
<path d="M72.7251 59.9843C73.0901 65.1043 73.7751 66.6592 74.6726 64.5317C75.5751 62.4217 72.7251 59.9843 72.7251 59.9843Z" fill="#C3321E"/>
<path d="M71.1221 64.8168C71.1221 64.8168 72.6146 64.5969 72.1871 62.7194C72.1871 62.7194 71.1221 62.8294 71.1221 64.8168Z" fill="#C3321E"/>
<path d="M70.5487 54.5272C70.5487 54.5272 66.7862 54.5272 68.1162 56.4497C69.4387 58.3672 70.5487 54.5272 70.5487 54.5272Z" fill="#C3321E"/>
<path d="M89.3516 101.173C89.3516 101.173 90.5016 98.8276 90.4641 95.2126C90.4666 95.2126 86.8066 99.3926 89.3516 101.173Z" fill="#C3321E"/>
<path d="M113.064 86.4805C113.064 86.4805 110.414 88.898 110.899 91.1005C111.377 93.3105 113.702 90.6655 113.064 86.4805Z" fill="#C3321E"/>
<path d="M123.662 94.2996C124.825 92.2646 117.295 89.7446 117.295 89.7446C118.782 91.9496 122.607 96.1146 123.662 94.2996Z" fill="#C3321E"/>
<path d="M115.239 94.7357C117.006 91.7107 109.889 93.1582 109.889 93.1582C109.889 93.1582 114.551 95.9307 115.239 94.7357Z" fill="#C3321E"/>
<path d="M118.038 95.3577C118.038 95.3577 116.613 98.5452 111.318 99.8877C111.318 99.8877 112.436 102.45 111.318 107.283C111.318 107.283 116.663 100.463 119.743 110.328C119.743 110.328 122.386 111.763 124.238 102.83C124.238 102.83 122.016 99.6127 121.276 95.0377C121.278 95.0352 120.543 100.898 118.038 95.3577Z" fill="#C3321E"/>
<path d="M119.083 66.2795C119.421 65.997 119.683 65.8945 119.683 65.8945C117.091 61.702 118.038 67.7445 118.038 67.7445C118.206 67.347 118.403 67.042 118.606 66.7845C118.743 68.5745 118.313 71.242 115.518 73.777C115.516 73.777 121.511 71.517 119.083 66.2795Z" fill="#C3321E"/>
<path d="M73.3303 34.8942C74.6378 31.8292 70.5278 28.3392 70.5278 28.3392C71.0553 35.7067 72.0328 37.9567 73.3303 34.8942Z" fill="#C3321E"/>
<path d="M68.218 35.2956C68.218 35.2956 70.3455 34.9806 69.743 32.2856C69.743 32.2856 68.218 32.4381 68.218 35.2956Z" fill="#C3321E"/>
</svg>
