<svg width="78" height="78" viewBox="0 0 78 78" fill="none" xmlns="http://www.w3.org/2000/svg">
<path fill-rule="evenodd" clip-rule="evenodd" d="M33.4057 56.8709C33.4057 57.1241 33.6477 57.3284 33.9476 57.3284H41.6736C41.9735 57.3284 42.2156 57.1241 42.2156 56.8709V39.0212H47.8168C48.0992 39.0212 48.3332 38.8395 48.3574 38.6011L48.8954 33.2245C48.9017 33.1615 48.8924 33.098 48.8682 33.0381C48.844 32.9782 48.8053 32.9232 48.7547 32.8766C48.704 32.83 48.6424 32.7927 48.5738 32.7672C48.5052 32.7417 48.431 32.7285 48.3561 32.7284H42.2156V28.9128C42.2156 28.0182 43.0736 27.2928 44.1333 27.2928H48.4502C48.7501 27.2928 48.9922 27.0884 48.9922 26.8352V21.4575C48.9922 21.3362 48.9351 21.2198 48.8335 21.134C48.7318 21.0482 48.594 21 48.4502 21H41.1572C39.1017 21 37.1304 21.6893 35.677 22.9163C34.2235 24.1432 33.407 25.8073 33.407 27.5425V32.7284H29.542C29.3985 32.7284 29.2608 32.7764 29.1592 32.862C29.0576 32.9476 29.0004 33.0636 29 33.1848V38.5636C29 38.8168 29.2421 39.0212 29.542 39.0212H33.4057V56.8709Z" fill="white"/>
<rect x="1.5" y="1.5" width="75" height="75" stroke="white" stroke-width="3"/>
</svg>
