<svg width="78" height="78" viewBox="0 0 78 78" fill="none" xmlns="http://www.w3.org/2000/svg">
<g clip-path="url(#clip0)">
<path d="M56.4572 47.5545C56.4572 48.7236 56.227 49.8813 55.7796 50.9614C55.3321 52.0415 54.6764 53.023 53.8497 53.8497C53.023 54.6764 52.0415 55.3321 50.9614 55.7796C49.8813 56.227 48.7236 56.4572 47.5545 56.4572H30.4456C28.0844 56.4572 25.82 55.5193 24.1504 53.8497C22.4808 52.1801 21.5428 49.9156 21.5428 47.5545V30.4442C21.5428 28.0831 22.4808 25.8186 24.1504 24.149C25.82 22.4794 28.0844 21.5415 30.4456 21.5415H47.5545C49.9156 21.5415 52.1801 22.4794 53.8497 24.149C55.5193 25.8186 56.4572 28.0831 56.4572 30.4442V47.5545V47.5545ZM60.5173 30.4442C60.5173 23.2857 54.713 17.4828 47.5531 17.4828H30.4469C23.2857 17.4828 17.4828 23.2857 17.4828 30.4442V47.5545C17.4828 54.713 23.2871 60.5173 30.4469 60.5173H47.5531C50.9914 60.5173 54.2889 59.1514 56.7202 56.7202C59.1514 54.2889 60.5173 50.9914 60.5173 47.5531V30.4442ZM39.0727 46.0846C37.2678 46.0824 35.5376 45.3645 34.2614 44.0883C32.9852 42.8122 32.2673 41.0819 32.2651 39.2771C32.2673 37.4723 32.9852 35.742 34.2614 34.4658C35.5376 33.1896 37.2678 32.4717 39.0727 32.4695C40.8776 32.4713 42.6081 33.1891 43.8843 34.4654C45.1606 35.7417 45.8784 37.4721 45.8802 39.2771C45.8784 41.082 45.1606 42.8125 43.8843 44.0887C42.6081 45.365 40.8776 46.0828 39.0727 46.0846V46.0846ZM39.0727 28.6502C33.2132 28.6502 28.4458 33.4176 28.4458 39.2771C28.4458 45.1378 33.2132 49.9039 39.0727 49.9039C44.9334 49.9039 49.7008 45.1378 49.7008 39.2771C49.7008 33.4176 44.9334 28.6502 39.0727 28.6502V28.6502ZM50.3208 25.4052C49.9885 25.4052 49.6595 25.4706 49.3525 25.5978C49.0455 25.7249 48.7666 25.9113 48.5316 26.1463C48.2966 26.3812 48.1103 26.6602 47.9831 26.9672C47.8559 27.2741 47.7905 27.6032 47.7905 27.9355C47.7905 28.2677 47.8559 28.5968 47.9831 28.9038C48.1103 29.2107 48.2966 29.4897 48.5316 29.7246C48.7666 29.9596 49.0455 30.146 49.3525 30.2731C49.6595 30.4003 49.9885 30.4658 50.3208 30.4658C50.9919 30.4658 51.6355 30.1992 52.11 29.7246C52.5845 29.2501 52.8511 28.6065 52.8511 27.9355C52.8511 27.2644 52.5845 26.6208 52.11 26.1463C51.6355 25.6718 50.9919 25.4052 50.3208 25.4052V25.4052Z" fill="white"/>
</g>
<rect x="1.5" y="1.5" width="75" height="75" stroke="white" stroke-width="3"/>
<defs>
<clipPath id="clip0">
<rect width="43.0345" height="43.0345" fill="white" transform="translate(17.4828 17.4828)"/>
</clipPath>
</defs>
</svg>
