<svg width="78" height="78" viewBox="0 0 78 78" fill="none" xmlns="http://www.w3.org/2000/svg">
<path fill-rule="evenodd" clip-rule="evenodd" d="M59.873 27.5883C58.5054 28.1105 57.0005 28.4272 55.5266 28.6361C56.2259 28.5362 57.2587 27.4668 57.6716 27.0331C58.3009 26.3735 58.8241 25.6197 59.1186 24.808C59.1563 24.7444 59.1858 24.665 59.1105 24.6161C59.0164 24.5855 58.9545 24.6014 58.8792 24.6332C57.2473 25.3688 55.513 25.9294 53.7164 26.302C53.6542 26.3184 53.5877 26.3196 53.5247 26.3055C53.4617 26.2915 53.4046 26.2627 53.36 26.2225C53.222 26.0827 53.0714 25.9522 52.9095 25.832C52.1637 25.2897 51.3191 24.8527 50.4081 24.5378C49.1921 24.122 47.8805 23.9435 46.5713 24.0156C45.2996 24.0886 44.0598 24.3843 42.9309 24.8841C41.8001 25.3831 40.8016 26.0714 39.9965 26.9071C39.1609 27.7748 38.5622 28.7872 38.2428 29.8724C37.9416 30.9168 37.9658 31.9477 38.1487 33.0023C38.1783 33.1771 38.1594 33.201 37.9725 33.1771C30.8772 32.2882 25.0003 30.1449 20.2275 25.5561C20.0204 25.3563 19.9074 25.3563 19.738 25.5709C17.6494 28.2138 18.6621 32.4585 21.2711 34.5451C21.6194 34.8233 21.9758 35.1014 22.3617 35.3546C22.2219 35.3796 20.4857 35.2206 18.9378 34.5451C18.7307 34.435 18.6271 34.4986 18.6083 34.6961C18.5949 34.9831 18.6138 35.2705 18.6648 35.5544C19.0655 38.2336 21.263 40.7107 24.2727 41.678C24.6304 41.804 25.0245 41.9164 25.4104 41.9709C24.7246 42.098 24.0185 42.1889 22.0524 42.0594C21.8076 42.0186 21.7135 42.1219 21.8076 42.3205C23.2843 45.7206 26.4742 46.7322 28.8626 47.3077C29.1827 47.3554 29.5028 47.3554 29.8228 47.419C29.804 47.4428 29.7852 47.4428 29.7664 47.4667C28.9729 48.4861 26.2268 49.2456 24.9478 49.6237C22.6213 50.3094 20.089 50.6182 17.6293 50.4138C17.2366 50.365 17.1532 50.3684 17.047 50.4138C16.9394 50.4706 17.0335 50.5501 17.1599 50.6352C17.6575 50.9133 18.1659 51.1597 18.6836 51.3981C20.2382 52.0977 21.8788 52.6517 23.5761 53.0499C32.3673 55.099 42.2692 53.5937 48.8723 48.057C54.054 43.709 55.8708 37.7137 55.8708 31.7093C55.8708 31.4754 56.199 31.346 56.3953 31.2211C57.7442 30.3662 58.816 29.3422 59.8219 28.199C60.0479 27.9425 60.0344 27.7143 60.0344 27.62V27.5883C60.0344 27.4929 60.0479 27.5213 59.873 27.5883Z" fill="white"/>
<rect x="1.5" y="1.5" width="75" height="75" stroke="white" stroke-width="3"/>
</svg>
